<?xml version="1.0" encoding="utf-8"?>
<!-- Generator: Adobe Illustrator 21.0.2, SVG Export Plug-In . SVG Version: 6.00 Build 0)  -->
<svg version="1.1" xmlns="http://www.w3.org/2000/svg" xmlns:xlink="http://www.w3.org/1999/xlink" x="0px" y="0px"
	 viewBox="0 0 512 512" style="enable-background:new 0 0 512 512;" xml:space="preserve">
<style type="text/css">
	.st0{fill:#BFBFBF;}
	.st1{fill:#A5A5A5;}
	.st2{fill:#686868;}
</style>
<g id="Layer_1">
	<path class="st0" d="M128.5,34.2c-33.9,19.6-11.6,86.2-0.4,113.5l75.4,33.4l22.6-90C208.1,67.8,162.5,14.6,128.5,34.2z"/>
	<g>
		<path class="st0" d="M383.5,34.2c-33.9-19.5-79.6,33.6-97.6,57l22.6,90l75.4-33.4C395.1,120.4,417.4,53.7,383.5,34.2z"/>
		<path class="st0" d="M413.7,199.4L331,256l82.7,56.6c61.8-8.4,98.3-29,98.3-56.6S475.5,207.8,413.7,199.4z"/>
		<path class="st0" d="M383.9,364.3l-75.4-33.4l-22.6,90c15.3,19.8,50.4,60.3,81.4,60.3c5.6,0,11.1-1.3,16.3-4.3
			C417.4,457.3,395.1,391.6,383.9,364.3z"/>
	</g>
	<path class="st0" d="M203.5,330.9l-75.4,33.4c-11.2,27.3-33.6,93,0.4,112.5c5.2,3,10.6,5.3,16.3,5.3c31,0,66.1-41.5,81.4-61.3
		L203.5,330.9z"/>
	<path class="st0" d="M98.3,199.4C36.5,207.8,0,228.4,0,256s36.5,48.2,98.3,56.6L181,256L98.3,199.4z"/>
</g>
<g id="Layer_3">
	<path class="st1" d="M378.1,257.2v-2.4c63.8-37.2,119.8-89.7,98.7-126.3c-20.4-35.4-96.6-13.2-158.7,22.2l-2.1-1.2
		C315.7,78.1,296.8,0,256,0s-59.7,78.1-60,149.5l-2.1,1.2c-62.1-35.4-138.3-57.6-158.7-22.2s36.9,90.3,98.7,126.3v2.4
		c-61.8,36-119.1,90.9-98.7,126.3c24,41.4,116.7,1.8,158.7-22.2l2.1,1.2c0.3,71.4,19.2,149.5,60,149.5s59.7-78.1,60-149.5l2.1-1.2
		c42.3,24,135,63.6,158.7,22.2C497.2,348.1,439.9,293.2,378.1,257.2z M278.5,295c-7.2,4.2-15,6-22.5,6c-15.6,0-30.6-8.1-39-22.5
		c-12.3-21.6-5.1-49.2,16.5-61.5c7.2-3.9,14.7-6,22.5-6c15.6,0,30.6,8.1,39,22.5c4.2,7.2,6,15,6,22.5
		C301,271.6,292.9,286.9,278.5,295z"/>
</g>
<g id="Layer_2">
	<path class="st2" d="M391,256c0-24.6-24.9-43.8-57.3-44.7c13.5-25.5,13.5-58.5-10.2-72.3c-21.3-12-50.1-0.3-67.5,27
		c-17.1-27.3-46.2-39.3-67.5-27c-24,13.8-23.7,47.1-10.2,72.3c-32.4,0.9-57.3,20.1-57.3,44.7s24.9,43.8,57.3,44.7
		c-13.5,25.5-13.5,58.5,10.2,72.3c23.1,13.2,51.9-2.4,67.5-27.3c15.3,24.6,44.1,40.5,67.5,27.3c23.7-13.8,23.7-47.1,10.2-72.3
		C366.1,299.8,391,280.6,391,256z M278.5,295c-7.2,4.2-15,6-22.5,6c-15.6,0-30.6-8.1-39-22.5c-12.3-21.6-5.1-49.2,16.5-61.5
		c7.2-3.9,14.7-6,22.5-6c15.6,0,30.6,8.1,39,22.5c4.2,7.2,6,15,6,22.5C301,271.6,292.9,286.9,278.5,295z"/>
</g>
</svg>
