<?xml version="1.0" encoding="utf-8"?>
<!-- Generator: Adobe Illustrator 21.0.2, SVG Export Plug-In . SVG Version: 6.00 Build 0)  -->
<svg version="1.1" id="Layer_3" xmlns="http://www.w3.org/2000/svg" xmlns:xlink="http://www.w3.org/1999/xlink" x="0px" y="0px"
	 viewBox="0 0 512 512" style="enable-background:new 0 0 512 512;" xml:space="preserve">
<style type="text/css">
	.st0{fill:#EE4D2D;}
</style>
<path class="st0" d="M451.9,147.1H350.5c-3.1-34.4-12.7-65.4-26.4-89.1c-18.3-31.4-44.1-51-73.4-51c-29.3,0-55.1,19.4-73.4,51
	c-13.8,23.9-23.3,54.7-26.4,89.1H49.4c-12,0-22.7,10-21.8,22L48,453c2.2,30.7,21.3,56,57.4,56h290.4c32.5,0,54.9-20.4,57.4-56
	l20.4-284.1C474.6,156.9,463.9,147.1,451.9,147.1z M199.2,70.8c13.8-23.7,32-38.4,51.5-38.4c19.4,0,37.8,14.7,51.2,38.3
	c11.7,20.2,20,46.7,22.9,76.5H176.2C179.3,117.4,187.4,90.9,199.2,70.8z M326.7,392.6c-1.6,5.8-4.2,11.6-7.7,17.3
	c-0.8,1.2-1.3,2.2-1.8,2.8c-12.5,18.5-31.8,27.6-55.3,27.8c-22,0-47.6-8.1-74.6-24.5c-3.4-1.9-6.9-4-10.5-6.6
	c-4.7-3.2-5.9-9.6-2.7-14.3c3.2-4.7,9.6-5.9,14.3-2.7c3,2,6.1,4,9.4,6.1c23.7,14.4,45.6,21.6,63.8,21.6c16.5,0,29.8-6.2,38.3-18.7
	c0.5-0.9,1.1-1.5,1.2-1.9c2.4-3.9,4.2-8.1,5.4-12.1c2.4-8.4,2-17-1.3-24.8c-3.6-8.2-10.7-16.2-21.6-22.8
	c-7.3-4.4-16.3-8.4-27.2-11.3c-27.8-7.8-48.3-18.9-59.3-33.7c-12.1-16.3-13.1-36-0.1-59.9c8.6-15.8,26.3-25.6,48.7-27.4
	c19.3-1.5,42.5,3.1,66.1,15.1c5.1,2.6,7.1,8.8,4.4,13.9c-2.7,5.1-8.8,7.1-13.9,4.4c-20.1-10.2-39.2-14.2-55.1-12.9
	c-15.2,1.2-26.8,7.1-32,16.6c-8.6,15.8-8.5,28.2-1.5,37.6c8.1,10.9,24.9,19.4,48.4,26c12.7,3.6,23.5,8.2,32.4,13.6
	c14.7,8.9,24.5,20.1,29.8,32.2C329.7,366.5,330.4,379.7,326.7,392.6z"/>
</svg>
